<svg width="212" height="27" viewBox="0 0 212 27" fill="none" xmlns="http://www.w3.org/2000/svg">
<g clip-path="url(#clip0_45_157)">
<path d="M76.6134 0C74.4625 0 72.8712 1.61494 72.833 3.83889C72.803 5.61152 73.9084 6.66912 75.7946 6.66912C77.9455 6.66912 79.5368 5.05146 79.575 2.83023C79.6051 1.0576 78.4996 0 76.6134 0Z" fill="#FA0050"/>
<path d="M60.8939 17.1662C60.7793 17.8351 60.5636 18.4604 60.2579 19.0204C59.9549 19.5805 59.5755 20.0753 59.1306 20.4886C58.6939 20.8964 58.1889 21.2199 57.6348 21.451C56.5948 21.8806 55.3037 21.9078 54.3566 21.5217C53.9144 21.3423 53.535 21.0812 53.2211 20.7468C52.9099 20.4124 52.6697 19.9992 52.5141 19.5207C52.3558 19.034 52.293 18.4821 52.3231 17.8786C52.364 17.1499 52.525 16.4512 52.8062 15.8014C53.0846 15.1544 53.4613 14.5807 53.9171 14.0968C54.3702 13.6183 54.908 13.2295 55.5166 12.9467C56.1199 12.6667 56.7668 12.5253 57.4492 12.5253C58.047 12.5253 58.5874 12.6368 59.0651 12.857C59.5373 13.0745 59.9358 13.3844 60.2443 13.7814C60.5554 14.181 60.7738 14.6677 60.8912 15.2278C61.0113 15.7987 61.0113 16.4512 60.8912 17.1635M69.9533 0.899898C69.8714 0.804741 69.7568 0.750366 69.6312 0.750366H64.9118C64.7126 0.750366 64.5379 0.889023 64.4997 1.08749C64.4997 1.08749 62.679 10.0839 62.5644 10.7092C61.377 8.62933 59.0596 7.3488 56.1745 7.3488C50.4369 7.3488 46.2716 11.9462 46.2716 18.2836C46.2716 23.4982 49.4188 27 54.1 27C56.3492 27 58.3254 26.1055 59.7993 24.477C59.7038 24.9256 59.6083 25.3986 59.5045 25.9424C59.4827 26.062 59.5182 26.1871 59.5974 26.2822C59.6765 26.3774 59.7939 26.4318 59.9194 26.4318L64.6307 26.4263C64.8299 26.4263 65.0019 26.285 65.0428 26.0892L70.0434 1.24246C70.0652 1.12012 70.0352 0.992336 69.9561 0.897179" fill="#FA0050"/>
<path d="M77.3532 9.3689H72.4809C72.2735 9.3689 72.096 9.50212 72.0578 9.68155L68.7605 25.9669L68.8506 26.285C68.9352 26.3747 69.0553 26.4264 69.1836 26.4264H74.0586C74.266 26.4264 74.4462 26.2959 74.4844 26.1165L77.7817 9.82837L77.6889 9.51027C77.607 9.42055 77.4869 9.3689 77.3559 9.3689" fill="#FA0050"/>
<path d="M13.798 12.4329C13.798 12.4329 9.08403 12.4574 8.93664 12.4574C8.96666 12.3106 10.1895 6.26951 10.2304 6.01667C10.4707 6.02754 14.7397 6.05745 14.7397 6.05745C16.8906 6.05745 18.078 7.05795 18.078 8.87409C18.078 11.1361 16.5166 12.4329 13.798 12.4329ZM6.43089 24.9474C6.92494 22.7479 7.84481 17.8677 7.86937 17.74C8.08228 17.74 13.6015 17.778 13.6015 17.778C20.1797 17.778 24.2686 14.2735 24.2686 8.63755C24.2686 3.69485 20.8676 0.744995 15.1682 0.744995H5.38547C5.18348 0.744995 5.00606 0.891808 4.96512 1.09028L0.00549253 25.7793C-0.0190736 25.9044 0.0273291 26.0322 0.106486 26.1328C0.188374 26.2279 0.308474 26.2877 0.436764 26.2877H2.37203L4.80134 26.2687C4.80134 26.2687 6.12791 26.2877 6.42816 24.9474" fill="#FA0050"/>
<path d="M112.191 21.4591C109.77 21.4591 108.323 20.0998 108.323 17.8215C108.323 14.964 110.329 12.8896 113.094 12.8896C115.515 12.8896 116.962 14.249 116.962 16.5273C116.962 19.3847 114.956 21.4591 112.191 21.4591ZM113.465 7.34607C107.059 7.34607 102.411 11.9 102.411 18.1695C102.411 23.5336 106.098 26.9973 111.814 26.9973C118.22 26.9973 122.869 22.4488 122.869 16.1766C122.869 10.8125 119.178 7.34607 113.463 7.34607" fill="#FA0050"/>
<path d="M94.1318 17.1662C94.0144 17.8351 93.7988 18.4604 93.4931 19.0204C93.1901 19.5805 92.8107 20.0753 92.3685 20.4886C91.9318 20.8964 91.4295 21.2199 90.8727 21.451C89.8327 21.8806 88.5444 21.9078 87.5972 21.5217C87.155 21.3423 86.7756 21.0812 86.4617 20.7468C86.1478 20.4124 85.9103 19.9992 85.7548 19.5207C85.5964 19.034 85.5309 18.4821 85.5637 17.8786C85.6046 17.1499 85.7657 16.4512 86.0468 15.8014C86.3252 15.1544 86.7019 14.5807 87.1605 14.0968C87.6136 13.6183 88.1513 13.2295 88.76 12.9467C89.3605 12.6667 90.0101 12.5253 90.6898 12.5253C91.2849 12.5253 91.828 12.6368 92.3057 12.857C92.7752 13.0745 93.171 13.3844 93.4849 13.7814C93.7961 14.181 94.0144 14.6677 94.1318 15.2278C94.2519 15.7987 94.2519 16.4512 94.1318 17.1635M103.109 0.899898C103.03 0.804741 102.913 0.750366 102.787 0.750366H98.0678C97.8686 0.750366 97.6966 0.889023 97.6557 1.08749C97.6557 1.08749 95.835 10.0839 95.7204 10.7092C94.5303 8.62933 92.2129 7.3488 89.3305 7.3488C83.5902 7.3488 79.4276 11.9462 79.4276 18.2836C79.4276 23.4982 82.5748 27 87.2615 27C89.5079 27 91.4841 26.1055 92.9581 24.477C92.8625 24.9256 92.7697 25.3986 92.6633 25.9424C92.6414 26.062 92.6769 26.1871 92.7561 26.2822C92.8352 26.3774 92.9526 26.4318 93.0782 26.4318L97.7867 26.4263C97.9859 26.4263 98.1606 26.285 98.2016 26.0892L103.202 1.24246C103.224 1.12012 103.194 0.992336 103.112 0.897179" fill="#FA0050"/>
<path d="M138.435 8.77349C135.976 7.65608 133.451 7.17214 131.137 7.37333C127.086 7.72677 124.76 10.1356 125.072 13.6564C125.257 15.7825 126.477 17.411 128.803 18.6399L131.369 19.9775C132.417 20.5376 132.515 20.7958 132.545 21.1275C132.611 21.8888 131.74 22.0791 131.213 22.1253C129.608 22.264 127.656 21.6604 125.563 20.3744L125.241 20.3255L124.981 20.5213L122.926 24.1345C122.82 24.3194 122.874 24.5559 123.052 24.681C125.604 26.4155 128.544 27.1931 131.554 26.9321C136.069 26.5379 138.465 24.1617 138.138 20.4098C137.939 18.1478 136.85 16.715 134.366 15.4644L132.056 14.3034C130.7 13.5639 130.626 13.3764 130.596 13.0229C130.58 12.8272 130.525 12.2263 131.822 12.1121C133.11 12.0007 134.794 12.3867 136.451 13.1752L136.773 13.1915L137.011 12.9713L138.643 9.31996C138.736 9.11334 138.643 8.86865 138.435 8.77349Z" fill="#FA0050"/>
<path d="M163.927 1.20716C163.85 1.05491 163.692 0.957031 163.52 0.957031H156.852C156.702 0.957031 156.56 1.03044 156.475 1.1555C156.475 1.1555 149.856 10.508 149.392 11.4025C149.266 10.5543 146.018 1.29688 146.018 1.29688C145.958 1.10384 145.783 0.970625 145.579 0.970625H139.746C139.598 0.970625 139.462 1.04131 139.374 1.16094C139.287 1.28056 139.268 1.43553 139.317 1.57419L145.502 17.1799L143.649 26.2497C143.622 26.3802 143.66 26.5188 143.744 26.6248C143.829 26.7282 143.957 26.788 144.097 26.788H148.816C149.433 26.788 149.968 26.3502 150.082 25.744L151.734 17.3321L163.886 1.6775C163.987 1.53885 164.003 1.35669 163.927 1.20444" fill="#FA0050"/>
<path d="M170.975 17.3838C170.863 18.0227 170.658 18.6208 170.366 19.1537C170.077 19.6866 169.716 20.1597 169.29 20.5539C168.873 20.9427 168.392 21.2553 167.863 21.4755C166.872 21.8861 165.638 21.9105 164.735 21.5435C164.314 21.3722 163.951 21.1248 163.651 20.804C163.354 20.4832 163.127 20.089 162.98 19.6322C162.827 19.1673 162.764 18.6399 162.797 18.0662C162.832 17.3702 162.988 16.7041 163.255 16.0842C163.523 15.4671 163.88 14.9179 164.32 14.4557C164.751 13.9989 165.267 13.6292 165.846 13.3573C166.419 13.0909 167.039 12.9577 167.691 12.9577C168.259 12.9577 168.775 13.0637 169.23 13.273C169.681 13.4824 170.057 13.7787 170.352 14.1594C170.65 14.54 170.857 15.0049 170.972 15.5405C171.086 16.087 171.086 16.7095 170.972 17.3865M178.093 8.28411C178.017 8.18896 177.902 8.13458 177.779 8.13458H173.183C172.986 8.13458 172.817 8.27324 172.779 8.46355C172.779 8.46355 172.604 9.33899 172.495 9.95071V9.96974C171.45 8.71639 169.828 7.94699 168.22 7.84639C166.752 7.75667 165.324 7.99049 163.951 8.51249C159.426 10.228 156.41 14.6596 156.461 19.518C156.505 23.7457 159.278 26.5814 163.504 26.7771C165.775 26.8831 167.751 26.2089 169.547 24.6864C169.454 25.1377 169.334 25.7304 169.255 26.1382L169.345 26.4699C169.421 26.5623 169.536 26.614 169.659 26.614H174.247C174.444 26.6113 174.61 26.4726 174.649 26.2823L178.181 8.6158C178.205 8.49618 178.172 8.37383 178.096 8.28139" fill="#FA0050"/>
<path d="M30.634 14.6107C31.5047 12.5308 33.0797 11.4569 35.4244 11.4569C37.7691 11.4569 39.0083 12.5363 39.082 14.6324C38.7053 14.6324 31.0407 14.6107 30.6367 14.6107M35.5363 7.32983C29.2419 7.32983 24.6726 11.8946 24.6726 18.1858C24.6726 23.6125 28.3357 26.981 34.2316 26.981C36.9038 26.981 39.112 26.2986 41.4403 24.7516C41.6478 24.613 41.6805 24.3139 41.5058 24.1345L38.6098 21.152C38.4842 21.0215 38.2904 20.9998 38.1294 21.084C36.8629 21.7556 35.6673 22.0546 34.3462 22.0546C31.6467 22.0546 30.0771 20.8258 30.0417 18.6861L43.2555 18.6426C43.452 18.6426 43.624 18.5067 43.6677 18.3163C43.9625 16.9787 44.1371 16.0054 44.1371 14.975C44.1371 10.2579 40.8426 7.32983 35.539 7.32983" fill="#FA0050"/>
<path d="M211.828 9.77935C211.694 9.6271 211.503 9.54009 211.298 9.54009H202.763L204.002 0.796563C204.03 0.595375 203.97 0.394187 203.839 0.241936C203.705 0.0896858 203.511 0.00268555 203.309 0.00268555H196.493C196.144 0.00268555 195.846 0.258249 195.8 0.603531L194.533 9.54281H185.802C185.452 9.54281 185.155 9.8011 185.106 10.1464L184.167 16.9351C184.139 17.1363 184.199 17.3375 184.333 17.4897C184.467 17.642 184.658 17.729 184.863 17.729H193.398L192.219 26.0049C192.192 26.2061 192.252 26.4073 192.383 26.5622C192.516 26.7145 192.71 26.8042 192.912 26.8042H199.728C200.077 26.8042 200.372 26.5487 200.421 26.2034L201.628 17.7317H210.362C210.712 17.7317 211.009 17.4734 211.058 17.1282L211.997 10.3394C212.025 10.1382 211.965 9.93703 211.831 9.78478L211.828 9.77935Z" fill="#C1F9FE"/>
</g>
<defs>
<clipPath id="clip0_45_157">
<rect width="212" height="27" fill="white"/>
</clipPath>
</defs>
</svg>
