<svg width="85" height="54" viewBox="0 0 85 54" fill="none" xmlns="http://www.w3.org/2000/svg">
<path d="M37.392 0.0291446H36.7594L33.8953 0H0.943C0.421715 0 0 0.41969 0 0.938472V6.13795C0 11.8446 4.04143 14.9806 11.3921 14.9806L37.3979 15.033C40.1449 15.033 42.3764 17.2481 42.3764 19.9819C42.3764 22.7157 40.1507 24.9365 37.3979 24.9365H8.22929C7.80757 24.9365 7.43271 25.228 7.33314 25.6302L0.433427 52.7584C0.363142 53.0324 0.427571 53.3238 0.603285 53.5512C0.778999 53.7727 1.04843 53.9067 1.33543 53.9067H10.5839C14.0513 53.9067 15.7147 51.0447 16.1071 49.5408L18.8307 39.6839H37.4096C48.3976 39.6839 57.3356 30.7889 57.3356 19.8536C57.3356 8.91839 48.3976 0.0233166 37.4096 0.0233166" fill="#FA0050"/>
<path d="M84.4659 14.3744C84.2726 14.1528 83.9915 14.0246 83.6928 14.0246H71.2112L73.0211 1.25324C73.0621 0.961786 72.9742 0.664507 72.7809 0.443004C72.5876 0.221501 72.3065 0.0932617 72.0078 0.0932617H62.0448C61.5352 0.0932617 61.1018 0.46632 61.0315 0.973444L59.1806 14.0304H46.412C45.9025 14.0304 45.4632 14.4093 45.3988 14.9106L44.0223 24.8258C43.9813 25.1172 44.0692 25.4145 44.2625 25.636C44.4558 25.8575 44.7369 25.9857 45.0356 25.9857H57.5113L55.7893 38.0751C55.7483 38.3666 55.8362 38.6639 56.0295 38.8854C56.2228 39.1069 56.5098 39.2351 56.8026 39.2351H66.7656C67.2752 39.2351 67.7086 38.862 67.7789 38.3607L69.5419 25.9857H82.3105C82.8201 25.9857 83.2593 25.6069 83.3238 25.1056L84.7002 15.1904C84.7412 14.899 84.6533 14.6017 84.46 14.3802L84.4659 14.3744Z" fill="#C1F9FE"/>
</svg>
