<svg width="465" height="297" viewBox="0 0 465 297" fill="none" xmlns="http://www.w3.org/2000/svg">
<path d="M265.731 102.536C265.031 101.967 264.01 101.642 262.94 101.642H217.864L224.408 68.9804C224.556 68.2322 224.243 67.4723 223.535 66.9039C222.836 66.3355 221.815 66.0049 220.737 66.0049H184.74C182.896 66.0049 181.332 66.9619 181.069 68.2496L174.385 101.642H128.263C126.411 101.642 124.847 102.605 124.592 103.893L119.628 129.258C119.48 130.006 119.801 130.76 120.509 131.329C121.209 131.897 122.229 132.222 123.299 132.222H168.367L162.144 163.132C161.996 163.88 162.309 164.64 163.017 165.209C163.716 165.777 164.737 166.108 165.816 166.108H201.812C203.656 166.108 205.22 165.151 205.484 163.863L211.855 132.216H257.976C259.829 132.216 261.393 131.253 261.648 129.966L266.611 104.601C266.76 103.852 266.439 103.098 265.731 102.53V102.536Z" stroke="#FA0050" stroke-linecap="round" stroke-linejoin="round"/>
<path d="M173.199 102.536C172.499 101.967 171.478 101.642 170.408 101.642H125.332L131.876 68.9804C132.024 68.2322 131.712 67.4723 131.004 66.9039C130.304 66.3355 129.283 66.0049 128.205 66.0049H92.2082C90.3644 66.0049 88.8004 66.9619 88.5369 68.2496L81.8529 101.642H35.7313C33.8792 101.642 32.3152 102.605 32.06 103.893L27.0963 129.258C26.9482 130.006 27.2692 130.76 27.9771 131.329C28.6768 131.897 29.6975 132.222 30.7676 132.222H75.8356L69.6125 163.132C69.4643 163.88 69.7772 164.64 70.4851 165.209C71.1848 165.777 72.2055 166.108 73.2838 166.108H109.281C111.124 166.108 112.688 165.151 112.952 163.863L119.323 132.216H165.445C167.297 132.216 168.861 131.253 169.116 129.966L174.08 104.601C174.228 103.852 173.907 103.098 173.199 102.53V102.536Z" stroke="#FA0050" stroke-linecap="round" stroke-linejoin="round"/>
<path d="M278.589 37.5308C277.889 36.9623 276.868 36.6375 275.798 36.6375H230.722L237.266 3.97559C237.414 3.22734 237.102 2.4675 236.394 1.89906C235.694 1.33062 234.673 1 233.595 1H197.598C195.754 1 194.19 1.95706 193.927 3.24475L187.243 36.6375H141.121C139.269 36.6375 137.705 37.6004 137.45 38.8881L132.486 64.2531C132.338 65.0014 132.659 65.7554 133.367 66.3238C134.067 66.8923 135.087 67.2171 136.158 67.2171H181.225L175.002 98.1273C174.854 98.8756 175.167 99.6354 175.875 100.204C176.575 100.772 177.595 101.103 178.674 101.103H214.67C216.514 101.103 218.078 100.146 218.342 98.8582L224.713 67.2113H270.835C272.687 67.2113 274.251 66.2484 274.506 64.9608L279.47 39.5957C279.618 38.8475 279.297 38.0934 278.589 37.525V37.5308Z" stroke="#FA0050" stroke-linecap="round" stroke-linejoin="round"/>
<path d="M186.056 37.5308C185.356 36.9623 184.335 36.6375 183.265 36.6375H138.189L144.733 3.97559C144.881 3.22734 144.569 2.4675 143.861 1.89906C143.161 1.33062 142.14 1 141.062 1H105.065C103.221 1 101.657 1.95706 101.394 3.24475L94.7098 36.6375H48.5882C46.7361 36.6375 45.1721 37.6004 44.9169 38.8881L39.9533 64.2531C39.8051 65.0014 40.1261 65.7554 40.8341 66.3238C41.5337 66.8923 42.5545 67.2171 43.6246 67.2171H88.6925L82.4694 98.1273C82.3213 98.8756 82.6341 99.6354 83.342 100.204C84.0417 100.772 85.0624 101.103 86.1407 101.103H122.137C123.981 101.103 125.545 100.146 125.809 98.8582L132.18 67.2113H178.302C180.154 67.2113 181.718 66.2484 181.973 64.9608L186.937 39.5957C187.085 38.8475 186.764 38.0934 186.056 37.525V37.5308Z" stroke="#FA0050" stroke-linecap="round" stroke-linejoin="round"/>
<path d="M450.226 102.536C449.526 101.967 448.505 101.642 447.435 101.642H402.359L408.903 68.9804C409.051 68.2322 408.738 67.4723 408.03 66.9039C407.331 66.3355 406.31 66.0049 405.232 66.0049H369.235C367.391 66.0049 365.827 66.9619 365.564 68.2496L358.88 101.642H312.758C310.906 101.642 309.342 102.605 309.087 103.893L304.123 129.258C303.975 130.006 304.296 130.76 305.004 131.329C305.704 131.897 306.724 132.222 307.794 132.222H352.862L346.639 163.132C346.491 163.88 346.804 164.64 347.512 165.209C348.212 165.777 349.232 166.108 350.311 166.108H386.307C388.151 166.108 389.715 165.151 389.979 163.863L396.35 132.216H442.471C444.324 132.216 445.888 131.253 446.143 129.966L451.106 104.601C451.255 103.852 450.934 103.098 450.226 102.53V102.536Z" stroke="#FA0050" stroke-linecap="round" stroke-linejoin="round"/>
<path d="M357.694 102.536C356.994 101.967 355.973 101.642 354.903 101.642H309.827L316.371 68.9804C316.519 68.2322 316.207 67.4723 315.499 66.9039C314.799 66.3355 313.778 66.0049 312.7 66.0049H276.703C274.859 66.0049 273.295 66.9619 273.032 68.2496L266.348 101.642H220.226C218.374 101.642 216.81 102.605 216.555 103.893L211.591 129.258C211.443 130.006 211.764 130.76 212.472 131.329C213.172 131.897 214.193 132.222 215.263 132.222H260.331L254.108 163.132C253.959 163.88 254.272 164.64 254.98 165.209C255.68 165.777 256.7 166.108 257.779 166.108H293.776C295.619 166.108 297.183 165.151 297.447 163.863L303.818 132.216H349.94C351.792 132.216 353.356 131.253 353.611 129.966L358.575 104.601C358.723 103.852 358.402 103.098 357.694 102.53V102.536Z" stroke="#FA0050" stroke-linecap="round" stroke-linejoin="round"/>
<path d="M463.084 37.5308C462.384 36.9623 461.363 36.6375 460.293 36.6375H415.217L421.761 3.97559C421.909 3.22734 421.597 2.4675 420.889 1.89906C420.189 1.33062 419.168 1 418.09 1H382.093C380.249 1 378.685 1.95706 378.422 3.24475L371.738 36.6375H325.616C323.764 36.6375 322.2 37.6004 321.945 38.8881L316.981 64.2531C316.833 65.0014 317.154 65.7554 317.862 66.3238C318.562 66.8923 319.582 67.2171 320.653 67.2171H365.721L359.497 98.1273C359.349 98.8756 359.662 99.6354 360.37 100.204C361.07 100.772 362.09 101.103 363.169 101.103H399.165C401.009 101.103 402.573 100.146 402.837 98.8582L409.208 67.2113H455.33C457.182 67.2113 458.746 66.2484 459.001 64.9608L463.965 39.5957C464.113 38.8475 463.792 38.0934 463.084 37.525V37.5308Z" stroke="#FA0050" stroke-linecap="round" stroke-linejoin="round"/>
<path d="M370.552 37.5308C369.852 36.9623 368.832 36.6375 367.761 36.6375H322.685L329.229 3.97559C329.378 3.22734 329.065 2.4675 328.357 1.89906C327.657 1.33062 326.636 1 325.558 1H289.561C287.717 1 286.153 1.95706 285.89 3.24475L279.206 36.6375H233.084C231.232 36.6375 229.668 37.6004 229.413 38.8881L224.449 64.2531C224.301 65.0014 224.622 65.7554 225.33 66.3238C226.03 66.8923 227.051 67.2171 228.121 67.2171H273.189L266.966 98.1273C266.817 98.8756 267.13 99.6354 267.838 100.204C268.538 100.772 269.559 101.103 270.637 101.103H306.634C308.478 101.103 310.042 100.146 310.305 98.8582L316.676 67.2113H362.798C364.65 67.2113 366.214 66.2484 366.469 64.9608L371.433 39.5957C371.581 38.8475 371.26 38.0934 370.552 37.525V37.5308Z" stroke="#FA0050" stroke-linecap="round" stroke-linejoin="round"/>
<path d="M239.67 232.099C238.97 231.53 237.949 231.205 236.879 231.205H191.803L198.347 198.543C198.495 197.795 198.183 197.035 197.475 196.467C196.775 195.898 195.754 195.568 194.676 195.568H158.679C156.835 195.568 155.271 196.525 155.008 197.813L148.324 231.205H102.202C100.35 231.205 98.7861 232.168 98.5309 233.456L93.5673 258.821C93.4191 259.569 93.7401 260.323 94.4481 260.892C95.1477 261.46 96.1685 261.785 97.2386 261.785H142.307L136.083 292.695C135.935 293.443 136.248 294.203 136.956 294.772C137.656 295.34 138.676 295.671 139.755 295.671H175.752C177.595 295.671 179.159 294.714 179.423 293.426L185.794 261.779H231.916C233.768 261.779 235.332 260.816 235.587 259.529L240.551 234.163C240.699 233.415 240.378 232.661 239.67 232.093V232.099Z" stroke="#FA0050" stroke-linecap="round" stroke-linejoin="round"/>
<path d="M147.13 232.099C146.43 231.53 145.409 231.205 144.339 231.205H99.263L105.807 198.543C105.955 197.795 105.643 197.035 104.935 196.467C104.235 195.898 103.214 195.568 102.136 195.568H66.1391C64.2952 195.568 62.7312 196.525 62.4678 197.813L55.7838 231.205H9.67036C7.81826 231.205 6.25425 232.168 5.99907 233.456L1.03542 258.821C0.887255 259.569 1.20829 260.323 1.9162 260.892C2.61589 261.46 3.63661 261.785 4.70671 261.785H49.7747L43.5516 292.695C43.4034 293.443 43.7162 294.203 44.4241 294.772C45.1238 295.34 46.1446 295.671 47.2229 295.671H83.2196C85.0635 295.671 86.6275 294.714 86.8909 293.426L93.2622 261.779H139.384C141.236 261.779 142.8 260.816 143.055 259.529L148.019 234.163C148.167 233.415 147.846 232.661 147.138 232.093L147.13 232.099Z" stroke="#FA0050" stroke-linecap="round" stroke-linejoin="round"/>
<path d="M252.528 167.088C251.828 166.52 250.807 166.195 249.737 166.195H204.661L211.205 133.533C211.353 132.785 211.041 132.025 210.333 131.456C209.633 130.888 208.612 130.557 207.534 130.557H171.537C169.693 130.557 168.129 131.514 167.866 132.802L161.182 166.195H115.06C113.208 166.195 111.644 167.158 111.389 168.445L106.425 193.81C106.277 194.559 106.598 195.313 107.306 195.881C108.006 196.45 109.026 196.774 110.097 196.774H155.165L148.941 227.685C148.793 228.433 149.106 229.193 149.814 229.761C150.514 230.33 151.534 230.66 152.613 230.66H188.61C190.453 230.66 192.017 229.703 192.281 228.416L198.652 196.769H244.774C246.626 196.769 248.19 195.806 248.445 194.518L253.409 169.153C253.557 168.405 253.236 167.651 252.528 167.082V167.088Z" stroke="#FA0050" stroke-linecap="round" stroke-linejoin="round"/>
<path d="M159.988 167.088C159.288 166.52 158.267 166.195 157.197 166.195H112.121L118.665 133.533C118.813 132.785 118.501 132.025 117.793 131.456C117.093 130.888 116.072 130.557 114.994 130.557H78.9972C77.1534 130.557 75.5894 131.514 75.326 132.802L68.6419 166.195H22.5285C20.6764 166.195 19.1124 167.158 18.8572 168.445L13.8936 193.81C13.7454 194.559 14.0664 195.313 14.7744 195.881C15.474 196.45 16.4948 196.774 17.5649 196.774H62.6328L56.4098 227.685C56.2616 228.433 56.5744 229.193 57.2823 229.761C57.982 230.33 59.0027 230.66 60.081 230.66H96.0778C97.9217 230.66 99.4857 229.703 99.7491 228.416L106.12 196.769H152.242C154.094 196.769 155.658 195.806 155.913 194.518L160.877 169.153C161.025 168.405 160.704 167.651 159.996 167.082L159.988 167.088Z" stroke="#FA0050" stroke-linecap="round" stroke-linejoin="round"/>
<path d="M424.165 232.099C423.465 231.53 422.444 231.205 421.374 231.205H376.298L382.842 198.543C382.99 197.795 382.678 197.035 381.97 196.467C381.27 195.898 380.249 195.568 379.171 195.568H343.174C341.33 195.568 339.766 196.525 339.503 197.813L332.819 231.205H286.697C284.845 231.205 283.281 232.168 283.026 233.456L278.062 258.821C277.914 259.569 278.235 260.323 278.943 260.892C279.643 261.46 280.663 261.785 281.734 261.785H326.802L320.578 292.695C320.43 293.443 320.743 294.203 321.451 294.772C322.151 295.34 323.171 295.671 324.25 295.671H360.247C362.09 295.671 363.654 294.714 363.918 293.426L370.289 261.779H416.411C418.263 261.779 419.827 260.816 420.082 259.529L425.046 234.163C425.194 233.415 424.873 232.661 424.165 232.093V232.099Z" stroke="#FA0050" stroke-linecap="round" stroke-linejoin="round"/>
<path d="M331.624 232.099C330.924 231.53 329.903 231.205 328.833 231.205H283.757L290.301 198.543C290.449 197.795 290.137 197.035 289.429 196.467C288.729 195.898 287.708 195.568 286.63 195.568H250.633C248.789 195.568 247.225 196.525 246.962 197.813L240.278 231.205H194.156C192.304 231.205 190.74 232.168 190.485 233.456L185.521 258.821C185.373 259.569 185.694 260.323 186.402 260.892C187.102 261.46 188.122 261.785 189.193 261.785H234.261L228.037 292.695C227.889 293.443 228.202 294.203 228.91 294.772C229.61 295.34 230.63 295.671 231.709 295.671H267.705C269.549 295.671 271.113 294.714 271.377 293.426L277.748 261.779H323.87C325.722 261.779 327.286 260.816 327.541 259.529L332.505 234.163C332.653 233.415 332.332 232.661 331.624 232.093V232.099Z" stroke="#FA0050" stroke-linecap="round" stroke-linejoin="round"/>
<path d="M437.022 167.088C436.322 166.52 435.301 166.195 434.231 166.195H389.155L395.699 133.533C395.847 132.785 395.535 132.025 394.827 131.456C394.127 130.888 393.106 130.557 392.028 130.557H356.031C354.187 130.557 352.623 131.514 352.36 132.802L345.676 166.195H299.554C297.702 166.195 296.138 167.158 295.883 168.445L290.919 193.81C290.771 194.559 291.092 195.313 291.8 195.881C292.5 196.45 293.52 196.774 294.59 196.774H339.658L333.435 227.685C333.287 228.433 333.6 229.193 334.308 229.761C335.008 230.33 336.028 230.66 337.107 230.66H373.103C374.947 230.66 376.511 229.703 376.775 228.416L383.146 196.769H429.268C431.12 196.769 432.684 195.806 432.939 194.518L437.903 169.153C438.051 168.405 437.73 167.651 437.022 167.082V167.088Z" stroke="#FA0050" stroke-linecap="round" stroke-linejoin="round"/>
<path d="M344.482 167.088C343.782 166.52 342.762 166.195 341.691 166.195H296.615L303.159 133.533C303.308 132.785 302.995 132.025 302.287 131.456C301.587 130.888 300.566 130.557 299.488 130.557H263.491C261.647 130.557 260.083 131.514 259.82 132.802L253.136 166.195H207.014C205.162 166.195 203.598 167.158 203.343 168.445L198.379 193.81C198.231 194.559 198.552 195.313 199.26 195.881C199.96 196.45 200.981 196.774 202.051 196.774H247.119L240.896 227.685C240.747 228.433 241.06 229.193 241.768 229.761C242.468 230.33 243.489 230.66 244.567 230.66H280.564C282.408 230.66 283.972 229.703 284.235 228.416L290.606 196.769H336.728C338.58 196.769 340.144 195.806 340.399 194.518L345.363 169.153C345.511 168.405 345.19 167.651 344.482 167.082V167.088Z" stroke="#FA0050" stroke-linecap="round" stroke-linejoin="round"/>
</svg>
