<svg width="453" height="386" viewBox="0 0 453 386" fill="none" xmlns="http://www.w3.org/2000/svg">
<g clip-path="url(#clip0_45_29)">
<path d="M230.911 241.804C229.795 240.523 228.201 239.79 226.493 239.79H155.269L165.61 166.187C165.838 164.494 165.337 162.8 164.243 161.518C163.127 160.237 161.51 159.504 159.825 159.504H102.951C100.036 159.504 97.5529 161.656 97.1657 164.562L86.5973 239.813H13.6887C10.7733 239.813 8.29061 241.987 7.88063 244.894L0.0454029 302.019C-0.182365 303.712 0.318725 305.406 1.43479 306.687C2.55085 307.969 4.14523 308.701 5.85349 308.701H77.0766L67.237 378.368C67.0092 380.061 67.5103 381.755 68.6036 383.06C69.7197 384.341 71.3368 385.096 73.0223 385.096H129.896C132.811 385.096 135.271 382.945 135.681 380.039L145.749 308.724H218.635C221.55 308.724 224.033 306.55 224.443 303.643L232.278 246.496C232.506 244.802 232.005 243.109 230.888 241.827L230.911 241.804Z" fill="#C1F9FE"/>
</g>
<path d="M275.106 101.17C274.482 100.612 273.572 100.293 272.619 100.293H232.446L238.278 68.217C238.41 67.4822 238.132 66.736 237.501 66.1777C236.877 65.6195 235.967 65.2948 235.006 65.2948H202.926C201.282 65.2948 199.889 66.2347 199.654 67.4993L193.697 100.293H152.593C150.942 100.293 149.548 101.239 149.321 102.503L144.897 127.413C144.765 128.148 145.051 128.888 145.682 129.447C146.306 130.005 147.215 130.324 148.169 130.324H188.334L182.788 160.68C182.656 161.414 182.935 162.161 183.566 162.719C184.189 163.277 185.099 163.602 186.06 163.602H218.141C219.784 163.602 221.178 162.662 221.413 161.397L227.091 130.318H268.195C269.846 130.318 271.239 129.373 271.467 128.108L275.891 103.198C276.023 102.463 275.737 101.723 275.106 101.164V101.17Z" stroke="#FA0050" stroke-linecap="round" stroke-linejoin="round"/>
<path d="M192.641 101.17C192.017 100.612 191.107 100.293 190.154 100.293H149.981L155.813 68.217C155.945 67.4822 155.667 66.736 155.036 66.1777C154.412 65.6195 153.503 65.2948 152.541 65.2948H120.461C118.817 65.2948 117.424 66.2347 117.189 67.4993L111.232 100.293H70.1277C68.477 100.293 67.0832 101.239 66.8558 102.503L62.4321 127.413C62.3 128.148 62.5861 128.888 63.217 129.447C63.8406 130.005 64.7503 130.324 65.704 130.324H105.869L100.323 160.68C100.191 161.414 100.47 162.161 101.101 162.719C101.724 163.277 102.634 163.602 103.595 163.602H135.676C137.319 163.602 138.713 162.662 138.948 161.397L144.626 130.318H185.73C187.381 130.318 188.775 129.373 189.002 128.108L193.426 103.198C193.558 102.463 193.272 101.723 192.641 101.164V101.17Z" stroke="#FA0050" stroke-linecap="round" stroke-linejoin="round"/>
<path d="M286.565 37.3317C285.942 36.7734 285.032 36.4544 284.078 36.4544H243.906L249.738 4.37851C249.87 3.64368 249.591 2.89747 248.96 2.33923C248.337 1.78099 247.427 1.4563 246.466 1.4563H214.385C212.742 1.4563 211.348 2.39619 211.113 3.66077L205.156 36.4544H164.052C162.402 36.4544 161.008 37.4 160.78 38.6646L156.357 63.5746C156.225 64.3094 156.511 65.0499 157.142 65.6081C157.765 66.1664 158.675 66.4854 159.629 66.4854H199.794L194.248 96.841C194.116 97.5758 194.394 98.3221 195.025 98.8803C195.649 99.4385 196.559 99.7632 197.52 99.7632H229.6C231.244 99.7632 232.637 98.8233 232.872 97.5588L238.55 66.4797H279.655C281.305 66.4797 282.699 65.5341 282.926 64.2695L287.35 39.3595C287.482 38.6247 287.196 37.8842 286.565 37.326V37.3317Z" stroke="#FA0050" stroke-linecap="round" stroke-linejoin="round"/>
<path d="M204.099 37.3317C203.476 36.7734 202.566 36.4544 201.612 36.4544H161.44L167.272 4.37851C167.404 3.64368 167.125 2.89747 166.494 2.33923C165.871 1.78099 164.961 1.4563 164 1.4563H131.919C130.276 1.4563 128.882 2.39619 128.648 3.66077L122.691 36.4544H81.5864C79.9358 36.4544 78.5419 37.4 78.3145 38.6646L73.8908 63.5746C73.7588 64.3094 74.0449 65.0499 74.6758 65.6081C75.2994 66.1664 76.209 66.4854 77.1627 66.4854H117.328L111.782 96.841C111.65 97.5758 111.929 98.3221 112.559 98.8803C113.183 99.4385 114.093 99.7632 115.054 99.7632H147.135C148.778 99.7632 150.172 98.8233 150.406 97.5588L156.085 66.4797H197.189C198.839 66.4797 200.233 65.5341 200.461 64.2695L204.884 39.3595C205.016 38.6247 204.73 37.8842 204.099 37.326V37.3317Z" stroke="#FA0050" stroke-linecap="round" stroke-linejoin="round"/>
<path d="M439.53 101.17C438.907 100.612 437.997 100.293 437.043 100.293H396.871L402.703 68.217C402.835 67.4822 402.556 66.736 401.925 66.1777C401.302 65.6195 400.392 65.2948 399.431 65.2948H367.35C365.707 65.2948 364.313 66.2347 364.078 67.4993L358.121 100.293H317.017C315.367 100.293 313.973 101.239 313.745 102.503L309.322 127.413C309.19 128.148 309.476 128.888 310.107 129.447C310.73 130.005 311.64 130.324 312.594 130.324H352.759L347.213 160.68C347.081 161.414 347.359 162.161 347.99 162.719C348.614 163.277 349.523 163.602 350.485 163.602H382.565C384.209 163.602 385.602 162.662 385.837 161.397L391.515 130.318H432.62C434.27 130.318 435.664 129.373 435.891 128.108L440.315 103.198C440.447 102.463 440.161 101.723 439.53 101.164V101.17Z" stroke="#FA0050" stroke-linecap="round" stroke-linejoin="round"/>
<path d="M357.065 101.17C356.442 100.612 355.532 100.293 354.578 100.293H314.406L320.238 68.217C320.37 67.4822 320.091 66.736 319.46 66.1777C318.837 65.6195 317.927 65.2948 316.966 65.2948H284.885C283.242 65.2948 281.848 66.2347 281.613 67.4993L275.657 100.293H234.552C232.902 100.293 231.508 101.239 231.28 102.503L226.857 127.413C226.725 128.148 227.011 128.888 227.642 129.447C228.265 130.005 229.175 130.324 230.129 130.324H270.294L264.748 160.68C264.616 161.414 264.894 162.161 265.525 162.719C266.149 163.277 267.059 163.602 268.02 163.602H300.1C301.744 163.602 303.138 162.662 303.372 161.397L309.051 130.318H350.155C351.805 130.318 353.199 129.373 353.427 128.108L357.85 103.198C357.982 102.463 357.696 101.723 357.065 101.164V101.17Z" stroke="#FA0050" stroke-linecap="round" stroke-linejoin="round"/>
<path d="M450.99 37.3317C450.366 36.7734 449.457 36.4544 448.503 36.4544H408.33L414.163 4.37851C414.295 3.64368 414.016 2.89747 413.385 2.33923C412.761 1.78099 411.852 1.4563 410.891 1.4563H378.81C377.167 1.4563 375.773 2.39619 375.538 3.66077L369.581 36.4544H328.477C326.826 36.4544 325.432 37.4 325.205 38.6646L320.781 63.5746C320.649 64.3094 320.935 65.0499 321.566 65.6081C322.19 66.1664 323.1 66.4854 324.053 66.4854H364.218L358.672 96.841C358.54 97.5758 358.819 98.3221 359.45 98.8803C360.074 99.4385 360.983 99.7632 361.944 99.7632H394.025C395.668 99.7632 397.062 98.8233 397.297 97.5588L402.975 66.4797H444.079C445.73 66.4797 447.124 65.5341 447.351 64.2695L451.775 39.3595C451.907 38.6247 451.621 37.8842 450.99 37.326V37.3317Z" stroke="#FA0050" stroke-linecap="round" stroke-linejoin="round"/>
<path d="M368.524 37.3317C367.9 36.7734 366.991 36.4544 366.037 36.4544H325.865L331.697 4.37851C331.829 3.64368 331.55 2.89747 330.919 2.33923C330.296 1.78099 329.386 1.4563 328.425 1.4563H296.344C294.701 1.4563 293.307 2.39619 293.072 3.66077L287.115 36.4544H246.011C244.36 36.4544 242.967 37.4 242.739 38.6646L238.316 63.5746C238.183 64.3094 238.47 65.0499 239.1 65.6081C239.724 66.1664 240.634 66.4854 241.587 66.4854H281.753L276.206 96.841C276.074 97.5758 276.353 98.3221 276.984 98.8803C277.608 99.4385 278.517 99.7632 279.478 99.7632H311.559C313.202 99.7632 314.596 98.8233 314.831 97.5588L320.509 66.4797H361.613C363.264 66.4797 364.658 65.5341 364.885 64.2695L369.309 39.3595C369.441 38.6247 369.155 37.8842 368.524 37.326V37.3317Z" stroke="#FA0050" stroke-linecap="round" stroke-linejoin="round"/>
<path d="M251.881 228.409C251.257 227.85 250.347 227.531 249.394 227.531H209.221L215.053 195.456C215.185 194.721 214.907 193.974 214.276 193.416C213.652 192.858 212.742 192.533 211.781 192.533H179.701C178.057 192.533 176.663 193.473 176.429 194.738L170.472 227.531H129.368C127.717 227.531 126.323 228.477 126.096 229.742L121.672 254.652C121.54 255.386 121.826 256.127 122.457 256.685C123.08 257.243 123.99 257.562 124.944 257.562H165.109L159.563 287.918C159.431 288.653 159.71 289.399 160.341 289.957C160.964 290.516 161.874 290.84 162.835 290.84H194.916C196.559 290.84 197.953 289.9 198.188 288.636L203.866 257.557H244.97C246.621 257.557 248.014 256.611 248.242 255.347L252.665 230.437C252.798 229.702 252.511 228.961 251.881 228.403V228.409Z" stroke="#FA0050" stroke-linecap="round" stroke-linejoin="round"/>
<path d="M169.407 228.409C168.784 227.85 167.874 227.531 166.92 227.531H126.748L132.58 195.456C132.712 194.721 132.433 193.974 131.802 193.416C131.179 192.858 130.269 192.533 129.308 192.533H97.2274C95.5841 192.533 94.1902 193.473 93.9555 194.738L87.9986 227.531H46.9017C45.2511 227.531 43.8572 228.477 43.6298 229.742L39.2061 254.652C39.0741 255.386 39.3602 256.127 39.9911 256.685C40.6147 257.243 41.5243 257.562 42.478 257.562H82.6432L77.0971 287.918C76.9651 288.653 77.2438 289.399 77.8747 289.957C78.4983 290.516 79.408 290.84 80.369 290.84H112.45C114.093 290.84 115.487 289.9 115.722 288.636L121.4 257.557H162.504C164.155 257.557 165.549 256.611 165.776 255.347L170.2 230.437C170.332 229.702 170.046 228.961 169.415 228.403L169.407 228.409Z" stroke="#FA0050" stroke-linecap="round" stroke-linejoin="round"/>
<path d="M263.339 164.564C262.716 164.006 261.806 163.687 260.852 163.687H220.68L226.512 131.611C226.644 130.876 226.365 130.13 225.734 129.572C225.111 129.014 224.201 128.689 223.24 128.689H191.159C189.516 128.689 188.122 129.629 187.887 130.894L181.93 163.687H140.826C139.176 163.687 137.782 164.633 137.554 165.897L133.131 190.807C132.999 191.542 133.285 192.283 133.916 192.841C134.539 193.399 135.449 193.718 136.403 193.718H176.568L171.022 224.074C170.89 224.809 171.168 225.555 171.799 226.113C172.423 226.671 173.333 226.996 174.294 226.996H206.374C208.018 226.996 209.412 226.056 209.646 224.792L215.324 193.712H256.429C258.079 193.712 259.473 192.767 259.701 191.502L264.124 166.592C264.256 165.858 263.97 165.117 263.339 164.559V164.564Z" stroke="#FA0050" stroke-linecap="round" stroke-linejoin="round"/>
<path d="M180.867 164.564C180.243 164.006 179.334 163.687 178.38 163.687H138.207L144.04 131.611C144.172 130.876 143.893 130.13 143.262 129.572C142.638 129.014 141.729 128.689 140.768 128.689H108.687C107.044 128.689 105.65 129.629 105.415 130.894L99.4582 163.687H58.3613C56.7107 163.687 55.3168 164.633 55.0894 165.897L50.6657 190.807C50.5337 191.542 50.8198 192.283 51.4507 192.841C52.0743 193.399 52.9839 193.718 53.9376 193.718H94.1028L88.5567 224.074C88.4247 224.809 88.7034 225.555 89.3343 226.113C89.9579 226.671 90.8676 226.996 91.8286 226.996H123.909C125.553 226.996 126.947 226.056 127.181 224.792L132.859 193.712H173.964C175.614 193.712 177.008 192.767 177.236 191.502L181.659 166.592C181.791 165.858 181.505 165.117 180.874 164.559L180.867 164.564Z" stroke="#FA0050" stroke-linecap="round" stroke-linejoin="round"/>
<path d="M416.304 228.409C415.681 227.85 414.771 227.531 413.817 227.531H373.645L379.477 195.456C379.609 194.721 379.33 193.974 378.699 193.416C378.076 192.858 377.166 192.533 376.205 192.533H344.124C342.481 192.533 341.087 193.473 340.852 194.738L334.896 227.531H293.791C292.141 227.531 290.747 228.477 290.519 229.742L286.096 254.652C285.964 255.386 286.25 256.127 286.881 256.685C287.504 257.243 288.414 257.562 289.368 257.562H329.533L323.987 287.918C323.855 288.653 324.134 289.399 324.764 289.957C325.388 290.516 326.298 290.84 327.259 290.84H359.339C360.983 290.84 362.377 289.9 362.611 288.636L368.29 257.557H409.394C411.044 257.557 412.438 256.611 412.666 255.347L417.089 230.437C417.221 229.702 416.935 228.961 416.304 228.403V228.409Z" stroke="#FA0050" stroke-linecap="round" stroke-linejoin="round"/>
<path d="M333.831 228.409C333.207 227.85 332.298 227.531 331.344 227.531H291.171L297.004 195.456C297.136 194.721 296.857 193.974 296.226 193.416C295.603 192.858 294.693 192.533 293.732 192.533H261.651C260.008 192.533 258.614 193.473 258.379 194.738L252.422 227.531H211.318C209.667 227.531 208.273 228.477 208.046 229.742L203.622 254.652C203.49 255.386 203.776 256.127 204.407 256.685C205.031 257.243 205.941 257.562 206.894 257.562H247.059L241.513 287.918C241.381 288.653 241.66 289.399 242.291 289.957C242.915 290.516 243.824 290.84 244.785 290.84H276.866C278.509 290.84 279.903 289.9 280.138 288.636L285.816 257.557H326.92C328.571 257.557 329.965 256.611 330.192 255.347L334.616 230.437C334.748 229.702 334.462 228.961 333.831 228.403V228.409Z" stroke="#FA0050" stroke-linecap="round" stroke-linejoin="round"/>
<path d="M427.763 164.564C427.139 164.006 426.23 163.687 425.276 163.687H385.104L390.936 131.611C391.068 130.876 390.789 130.13 390.158 129.572C389.535 129.014 388.625 128.689 387.664 128.689H355.583C353.94 128.689 352.546 129.629 352.311 130.894L346.354 163.687H305.25C303.599 163.687 302.206 164.633 301.978 165.897L297.555 190.807C297.422 191.542 297.709 192.283 298.339 192.841C298.963 193.399 299.873 193.718 300.826 193.718H340.992L335.446 224.074C335.313 224.809 335.592 225.555 336.223 226.113C336.847 226.671 337.756 226.996 338.717 226.996H370.798C372.441 226.996 373.835 226.056 374.07 224.792L379.748 193.712H420.852C422.503 193.712 423.897 192.767 424.124 191.502L428.548 166.592C428.68 165.858 428.394 165.117 427.763 164.559V164.564Z" stroke="#FA0050" stroke-linecap="round" stroke-linejoin="round"/>
<path d="M345.291 164.564C344.667 164.006 343.757 163.687 342.804 163.687H302.631L308.463 131.611C308.595 130.876 308.317 130.13 307.686 129.572C307.062 129.014 306.153 128.689 305.191 128.689H273.111C271.467 128.689 270.074 129.629 269.839 130.894L263.882 163.687H222.778C221.127 163.687 219.733 164.633 219.506 165.897L215.082 190.807C214.95 191.542 215.236 192.283 215.867 192.841C216.491 193.399 217.4 193.718 218.354 193.718H258.519L252.973 224.074C252.841 224.809 253.12 225.555 253.751 226.113C254.374 226.671 255.284 226.996 256.245 226.996H288.326C289.969 226.996 291.363 226.056 291.598 224.792L297.276 193.712H338.38C340.031 193.712 341.425 192.767 341.652 191.502L346.076 166.592C346.208 165.858 345.922 165.117 345.291 164.559V164.564Z" stroke="#FA0050" stroke-linecap="round" stroke-linejoin="round"/>
<defs>
<clipPath id="clip0_45_29">
<rect width="232.346" height="225.592" fill="white" transform="translate(0 159.481)"/>
</clipPath>
</defs>
</svg>
